<?xml version="1.0" standalone="no"?>
<!DOCTYPE svg PUBLIC "-//W3C//DTD SVG 20010904//EN"
 "http://www.w3.org/TR/2001/REC-SVG-20010904/DTD/svg10.dtd">
<svg version="1.0" xmlns="http://www.w3.org/2000/svg"
 width="735.000000pt" height="819.000000pt" viewBox="0 0 735.000000 819.000000"
 preserveAspectRatio="xMidYMid meet">

<g transform="translate(0.000000,819.000000) scale(0.100000,-0.100000)"
fill="#000000" stroke="none">
<path d="M0 4095 l0 -4095 3675 0 3675 0 0 905 c0 895 0 906 -21 968 -30 87
-30 238 0 324 l21 62 0 2966 0 2965 -435 0 c-389 0 -483 -5 -415 -23 11 -3 20
-12 20 -19 0 -16 -46 -41 -59 -33 -5 2 -6 -7 -3 -20 5 -29 -22 -36 -32 -9 -10
27 -7 39 16 49 12 6 23 16 26 23 6 19 -23 14 -43 -8 -26 -28 -38 -25 -33 10
l5 30 -2214 0 -2213 0 0 -21 c0 -12 -4 -17 -11 -14 -6 4 -8 13 -5 21 4 12 -25
14 -177 14 l-183 0 4 -41 c4 -35 2 -40 -14 -37 -10 2 -24 14 -30 26 l-12 24
-22 -24 c-21 -23 -21 -23 -1 -26 23 -4 29 -21 9 -24 -7 -1 -31 -2 -53 -4 -58
-3 -89 -10 -113 -25 -16 -10 -24 -10 -35 -1 -30 25 -62 -9 -35 -36 9 -9 7 -12
-10 -12 -14 0 -27 9 -34 25 -6 14 -18 25 -25 25 -9 0 -13 8 -11 23 3 20 8 22
60 22 55 -1 57 0 51 23 -5 22 -4 23 17 12 18 -10 20 -14 9 -21 -22 -14 6 -10
35 4 l25 14 -27 20 c-15 11 -47 23 -71 27 -44 7 -45 6 -27 -13 17 -18 17 -19
-5 -26 -18 -6 -28 -2 -44 19 l-21 26 -607 0 -607 0 0 -4095z m1968 4001 c4
-20 -15 -46 -34 -46 -8 0 -14 10 -14 24 0 14 -5 28 -10 31 -6 4 -8 10 -5 15 9
14 60 -5 63 -24z m42 24 c0 -5 -2 -10 -4 -10 -3 0 -8 5 -11 10 -3 6 -1 10 4
10 6 0 11 -4 11 -10z m4390 -66 c0 -19 -38 -56 -45 -44 -8 13 24 72 35 65 6
-4 10 -13 10 -21z m120 -13 c0 -24 -5 -29 -30 -35 -17 -3 -46 -22 -65 -43
l-34 -37 -7 29 c-5 20 -3 30 5 33 7 2 27 16 45 31 34 28 67 49 79 50 4 1 7
-12 7 -28z m-5130 -21 c0 -5 9 -10 20 -10 11 0 20 -6 20 -14 0 -11 -7 -12 -37
-4 -21 6 -48 11 -60 12 -27 1 -17 13 17 19 14 2 28 5 33 6 4 0 7 -3 7 -9z m90
-35 c0 -8 -4 -15 -10 -15 -5 0 -10 7 -10 15 0 8 5 15 10 15 6 0 10 -7 10 -15z
m5044 -31 c8 -22 10 -20 -26 -43 -18 -11 -43 -28 -56 -37 -20 -15 -25 -15 -32
-3 -10 15 34 69 56 69 6 0 17 7 24 15 16 19 26 19 34 -1z m2 -129 c-7 -19 -53
-48 -65 -41 -17 11 8 52 37 62 28 10 38 3 28 -21z m-88 -52 c-3 -19 -55 -49
-65 -39 -9 9 38 56 54 56 8 0 13 -8 11 -17z m-233 -23 c-3 -5 -10 -10 -16 -10
-5 0 -9 5 -9 10 0 6 7 10 16 10 8 0 12 -4 9 -10z m317 -26 c-2 -10 -8 -21 -13
-23 -6 -1 -18 -11 -27 -20 -39 -39 -102 -65 -102 -42 0 22 114 112 135 107 6
-2 8 -12 7 -22z m-4516 -12 c-22 -5 -30 3 -21 18 5 8 11 7 22 -2 15 -12 14
-13 -1 -16z m4204 -32 c0 -5 -5 -10 -11 -10 -5 0 -7 5 -4 10 3 6 8 10 11 10 2
0 4 -4 4 -10z m307 -75 c-4 -8 -14 -15 -23 -15 -16 0 -16 2 1 20 20 22 31 20
22 -5z m-77 -46 c0 -12 -5 -19 -11 -17 -6 2 -10 7 -10 11 1 4 1 14 1 23 0 8 5
12 10 9 6 -3 10 -15 10 -26z m90 -42 c0 -18 -54 -57 -79 -57 -11 0 -25 -9 -31
-20 -12 -22 -35 -26 -46 -9 -8 13 33 48 57 49 8 0 26 11 39 25 25 27 60 34 60
12z m-43 -142 c-30 -27 -103 -52 -115 -41 -12 12 31 38 56 33 13 -3 22 1 22 9
0 12 51 35 60 27 3 -3 -7 -15 -23 -28z m49 -92 c-11 -11 -19 6 -11 24 8 17 8
17 12 0 3 -10 2 -21 -1 -24z m-36 7 c0 -14 -49 -60 -64 -60 -6 0 -21 -3 -33
-6 -38 -10 -26 12 24 45 48 32 73 39 73 21z m-5184 -48 c-9 -9 -37 8 -31 18 5
8 11 7 21 -1 8 -6 12 -14 10 -17z m5224 -73 c0 -5 -13 -9 -30 -9 -28 0 -38 9
-25 22 8 8 55 -3 55 -13z m-110 -44 c-16 -20 -40 -19 -40 0 0 17 43 38 48 23
2 -5 -2 -15 -8 -23z m70 -64 c0 -15 -17 -22 -36 -14 -16 6 -16 7 2 14 27 11
34 10 34 0z m-72 -42 c-2 -6 -8 -10 -13 -10 -5 0 -11 4 -13 10 -2 6 4 11 13
11 9 0 15 -5 13 -11z m87 -79 c-3 -5 -10 -10 -16 -10 -5 0 -9 5 -9 10 0 6 7
10 16 10 8 0 12 -4 9 -10z m-55 -10 c0 -15 -38 -32 -45 -20 -3 5 -3 15 0 20 8
13 45 13 45 0z m-2940 -56 c0 -24 -27 -93 -43 -111 -20 -22 -27 -23 -195 -23
l-175 0 7 46 c3 26 6 56 6 68 1 19 3 18 25 -8 l24 -30 54 14 c51 12 100 10
198 -6 32 -5 39 -2 60 25 23 28 39 39 39 25z m2956 -63 c-8 -13 -36 -15 -36
-3 0 4 5 13 12 20 14 14 34 0 24 -17z m24 -91 c0 -5 -9 -10 -20 -10 -11 0 -20
5 -20 10 0 6 9 10 20 10 11 0 20 -4 20 -10z m-3052 -87 c2 -9 -7 -13 -27 -13
-34 0 -50 16 -24 23 27 7 46 3 51 -10z m-278 -3 c0 -12 -28 -25 -36 -17 -9 9
6 27 22 27 8 0 14 -5 14 -10z m-66 -492 c-4 -7 -21 -30 -38 -51 -30 -38 -32
-39 -82 -32 -39 5 -54 3 -64 -9 -10 -13 -10 -19 1 -33 13 -15 9 -16 -45 -10
-32 3 -61 8 -64 11 -9 10 29 45 72 65 49 23 183 68 209 70 12 1 16 -3 11 -11z
m706 -54 c14 -3 41 -19 60 -33 19 -15 43 -30 53 -34 38 -14 15 -27 -48 -27
-49 0 -65 3 -65 14 0 8 6 17 13 19 6 3 0 6 -15 6 -23 1 -28 6 -28 26 0 21 -5
25 -29 25 -29 0 -46 11 -35 22 5 5 27 1 94 -18z m-820 -84 c0 -5 -4 -10 -9
-10 -6 0 -13 5 -16 10 -3 6 1 10 9 10 9 0 16 -4 16 -10z m-120 -75 c10 -12 9
-16 -6 -21 -11 -3 -26 -9 -35 -14 -12 -6 -19 -4 -23 8 -3 9 -9 23 -12 30 -8
18 60 16 76 -3z m230 -75 c0 -5 -10 -10 -22 -10 -19 0 -20 2 -8 10 19 13 30
13 30 0z m-132 -22 c8 -8 9 -15 1 -25 -15 -17 -34 -17 -49 2 -23 28 21 50 48
23z"/>
<path d="M1465 8176 c-12 -8 -16 -19 -12 -31 7 -15 9 -15 31 6 35 33 20 53
-19 25z"/>
<path d="M1408 8113 c7 -3 16 -2 19 1 4 3 -2 6 -13 5 -11 0 -14 -3 -6 -6z"/>
<path d="M7336 2143 c-8 -50 -6 -190 4 -228 5 -18 8 28 9 118 0 81 -1 147 -3
147 -2 0 -6 -17 -10 -37z"/>
</g>
</svg>
