<?xml version="1.0" standalone="no"?>
<!DOCTYPE svg PUBLIC "-//W3C//DTD SVG 20010904//EN"
 "http://www.w3.org/TR/2001/REC-SVG-20010904/DTD/svg10.dtd">
<svg version="1.0" xmlns="http://www.w3.org/2000/svg"
 width="612.000000pt" height="612.000000pt" viewBox="0 0 612.000000 612.000000"
 preserveAspectRatio="xMidYMid meet">

<g transform="translate(0.000000,612.000000) scale(0.100000,-0.100000)"
fill="#000000" stroke="none">
<path d="M0 3060 l0 -3060 3060 0 3060 0 0 3060 0 3060 -3060 0 -3060 0 0
-3060z m4100 2046 c0 -2 -7 -6 -15 -10 -8 -3 -15 -1 -15 4 0 6 7 10 15 10 8 0
15 -2 15 -4z m-23 -56 c-6 -11 -15 -20 -18 -20 -10 0 -5 34 6 42 17 12 25 -2
12 -22z m115 8 c-7 -7 -12 -8 -12 -2 0 6 3 14 7 17 3 4 9 5 12 2 2 -3 -1 -11
-7 -17z m-447 3 c3 -5 1 -12 -5 -16 -5 -3 -10 1 -10 9 0 18 6 21 15 7z m405
-1 c0 -5 -5 -10 -11 -10 -5 0 -7 5 -4 10 3 6 8 10 11 10 2 0 4 -4 4 -10z m176
-27 c0 -10 -5 -21 -11 -25 -6 -5 -3 -14 9 -25 13 -13 20 -15 23 -5 3 6 10 9
16 5 7 -4 8 0 4 11 -4 10 -3 15 3 11 18 -11 6 -70 -19 -95 l-23 -23 7 23 c5
17 4 21 -5 15 -9 -5 -11 -4 -6 3 4 7 13 12 21 12 7 0 16 7 19 16 5 13 3 14 -6
7 -9 -7 -21 -5 -38 3 -14 8 -20 14 -15 14 6 0 3 5 -5 10 -10 7 -11 12 -4 18 6
4 13 15 17 25 3 9 8 17 11 17 2 0 3 -8 2 -17z m-226 -22 c-5 -10 -6 -22 -2
-26 4 -5 -1 -5 -10 -2 -11 4 -18 0 -21 -11 -3 -10 -5 -6 -6 10 0 15 4 30 11
34 7 4 8 3 4 -4 -4 -7 -2 -12 3 -12 6 0 11 9 11 21 0 11 5 17 10 14 7 -4 7
-12 0 -24z m110 19 c12 -7 10 -9 -8 -7 -12 0 -22 5 -22 9 0 11 12 10 30 -2z
m-410 -10 c0 -5 -4 -10 -10 -10 -5 0 -10 5 -10 10 0 6 5 10 10 10 6 0 10 -4
10 -10z m220 -12 c0 -6 -6 -5 -15 2 -8 7 -15 14 -15 16 0 2 7 1 15 -2 8 -4 15
-11 15 -16z m135 8 c8 -7 12 -16 9 -19 -10 -9 -34 4 -34 19 0 18 8 18 25 0z
m68 -18 c-2 -5 0 -8 5 -8 5 0 7 -11 4 -25 -2 -14 -9 -25 -14 -25 -6 0 -8 7 -4
15 7 18 -39 22 -50 4 -4 -8 0 -9 15 -4 16 5 21 2 20 -12 0 -10 -3 -13 -5 -7
-3 7 -14 10 -24 7 -14 -4 -20 0 -20 11 0 9 4 16 9 16 5 0 12 8 15 18 3 10 16
17 30 17 13 0 22 -3 19 -7z m47 8 c0 -11 -19 -15 -25 -6 -3 5 1 10 9 10 9 0
16 -2 16 -4z m-690 -23 c0 -7 -7 -13 -16 -13 -8 0 -13 4 -10 9 4 5 0 11 -6 14
-7 3 -3 4 10 4 12 -1 22 -7 22 -14z m250 2 c0 -8 -6 -15 -14 -15 -7 0 -16 -9
-19 -21 -4 -13 -1 -19 6 -16 40 15 56 17 62 7 3 -5 1 -10 -4 -10 -6 0 -11 -4
-11 -10 0 -5 7 -7 15 -4 10 4 15 0 15 -12 0 -16 2 -16 10 -4 8 12 10 12 16 -3
11 -31 22 -18 19 24 -2 27 1 39 8 36 8 -2 11 -24 9 -64 -3 -57 -3 -60 19 -58
30 2 35 21 10 35 -28 14 -27 48 2 59 12 5 23 7 25 6 9 -8 8 -55 -1 -55 -7 0
-7 -4 1 -12 14 -14 16 -52 3 -44 -5 4 -4 -5 2 -19 8 -17 13 -20 15 -10 2 8 9
15 15 15 7 0 6 4 -2 9 -12 8 -12 12 -2 25 11 13 11 16 0 16 -11 0 -11 3 1 11
11 8 12 12 3 16 -20 8 -15 23 7 23 11 0 20 4 20 9 0 5 -8 7 -19 4 -10 -3 -22
1 -27 8 -5 9 -2 11 9 6 10 -3 17 -2 17 3 0 6 7 6 18 -1 19 -12 25 -50 9 -60
-14 -9 42 -21 57 -12 9 5 11 15 5 28 -7 19 -8 19 -8 -2 -1 -13 -6 -23 -11 -23
-6 0 -8 11 -4 26 5 19 4 25 -5 20 -6 -4 -11 -1 -11 8 0 10 9 16 25 16 14 0 25
-4 25 -10 0 -5 7 -7 15 -4 11 5 13 2 9 -10 -3 -9 -10 -16 -15 -16 -5 0 0 -9
11 -20 11 -11 27 -20 35 -20 38 0 6 -34 -52 -57 l-38 -14 36 5 c20 2 42 -1 48
-7 8 -8 11 -8 11 1 0 7 -5 12 -12 12 -6 0 -3 8 8 19 10 10 27 28 36 40 10 11
23 21 30 21 9 0 8 -3 -2 -10 -12 -8 -11 -10 7 -10 17 0 21 -4 16 -17 -4 -11
-8 -12 -11 -5 -6 19 -22 14 -22 -8 0 -13 5 -18 15 -14 8 4 15 1 15 -5 0 -18
39 -12 60 9 11 11 20 15 20 9 0 -8 6 -7 16 2 15 12 16 11 11 -6 -4 -11 -2 -27
3 -35 8 -12 10 -12 16 3 6 17 7 17 20 0 7 -10 14 -13 14 -6 0 6 9 9 20 6 14
-4 20 0 20 11 0 10 -4 14 -10 11 -5 -3 -10 -1 -10 5 0 18 24 6 35 -18 5 -12
13 -22 17 -22 5 0 8 -7 8 -15 0 -8 4 -15 8 -15 17 0 21 13 11 31 -5 11 -6 19
-2 18 20 -3 34 2 28 11 -9 15 2 12 31 -7 21 -13 27 -14 34 -3 6 10 11 8 19 -8
16 -30 14 -42 -9 -42 -13 0 -20 -7 -20 -20 0 -11 7 -20 15 -20 8 0 15 -4 15
-10 0 -5 5 -10 10 -10 6 0 10 7 10 15 0 8 -9 15 -20 15 -11 0 -20 5 -20 11 0
6 8 8 20 4 15 -5 21 0 26 19 9 37 28 50 53 36 12 -6 21 -15 21 -21 0 -6 -4 -7
-10 -4 -16 10 -12 -11 5 -25 9 -7 15 -8 15 -2 0 11 37 4 46 -9 3 -5 0 -18 -7
-30 -10 -19 -9 -21 6 -15 14 5 16 4 7 -7 -7 -8 -10 -16 -8 -18 2 -2 7 -22 10
-44 8 -50 21 -64 24 -26 1 17 -2 32 -7 36 -17 10 0 35 23 36 11 0 15 3 9 6
-12 4 -19 43 -9 43 2 0 12 3 22 7 12 4 15 3 10 -5 -4 -7 -2 -12 3 -12 6 0 11
-8 11 -18 0 -10 7 -27 15 -39 18 -26 2 -88 -22 -79 -8 3 -11 2 -8 -3 6 -12 45
-10 45 1 0 4 4 8 10 8 5 0 7 -8 4 -17 -4 -14 -2 -13 7 2 7 11 17 24 23 28 7 6
4 7 -6 3 -11 -3 -18 0 -18 8 0 8 -3 21 -6 30 -5 12 2 18 25 22 19 4 31 13 32
23 1 13 2 13 6 -1 2 -10 9 -18 15 -18 5 0 8 -6 5 -13 -3 -7 1 -21 9 -31 12
-18 14 -17 25 8 7 14 19 26 28 25 10 0 12 -2 4 -6 -16 -6 -17 -33 -2 -33 6 0
9 -7 5 -15 -3 -8 -1 -15 5 -15 6 0 7 -5 2 -12 -4 -7 -8 -16 -9 -20 -1 -5 -2
-11 -3 -15 -1 -5 -6 -1 -12 7 -9 13 -10 13 -6 0 2 -8 10 -14 17 -12 7 2 10 -3
7 -12 -4 -9 -2 -18 3 -21 6 -4 10 -1 10 5 0 8 6 8 20 0 18 -9 20 -8 20 15 0
31 18 33 29 3 l8 -23 7 23 c8 23 21 29 31 12 3 -5 1 -10 -4 -10 -6 0 -11 -8
-10 -17 0 -11 3 -13 6 -5 2 6 12 12 21 12 12 0 11 -4 -6 -23 -27 -29 -29 -51
-3 -44 13 3 21 -1 24 -14 5 -20 26 -22 39 -4 5 6 12 5 20 -3 9 -9 8 -12 -7
-12 -17 0 -18 -2 -5 -10 8 -5 10 -10 4 -10 -6 0 -14 3 -18 7 -9 10 -36 13 -36
4 0 -10 61 -31 72 -25 5 3 9 0 7 -7 -4 -31 2 -49 15 -49 9 0 12 -8 8 -25 -3
-18 0 -25 12 -25 10 0 13 -5 9 -17 -5 -12 -2 -15 9 -10 11 4 17 -2 21 -19 2
-13 0 -27 -4 -30 -15 -9 -10 -54 5 -54 8 0 16 -10 18 -22 2 -17 9 -23 26 -22
22 1 23 -3 20 -38 -2 -21 0 -38 4 -38 5 0 8 -6 8 -14 0 -8 7 -22 16 -30 14
-15 14 -16 -3 -16 -15 0 -16 -2 -3 -10 8 -5 11 -12 7 -16 -4 -4 1 -13 11 -20
10 -8 12 -13 5 -14 -7 0 -13 -4 -13 -10 0 -5 7 -7 15 -4 8 4 15 1 15 -5 0 -6
-6 -11 -12 -12 -7 -1 -2 -5 12 -9 20 -6 21 -8 6 -9 -20 -1 -20 -1 0 -16 17
-13 18 -14 1 -15 -16 0 -16 -2 -1 -25 8 -13 13 -29 9 -35 -4 -6 -1 -9 7 -8 8
2 12 -5 10 -20 -2 -13 2 -29 8 -37 8 -10 8 -15 0 -20 -8 -5 -5 -11 7 -21 10
-7 13 -14 6 -14 -9 0 -10 -7 -2 -27 5 -15 9 -36 7 -47 -1 -12 1 -27 6 -34 4
-7 5 -19 2 -27 -3 -8 -1 -15 4 -15 6 0 10 -16 10 -35 0 -19 3 -35 8 -35 4 0 6
-89 5 -198 -3 -254 -4 -292 -13 -287 -12 7 -19 -20 -10 -36 6 -8 4 -16 -2 -21
-7 -3 -13 -28 -15 -55 -5 -75 -48 -248 -75 -296 -7 -12 -11 -30 -10 -39 3 -19
-21 -62 -51 -92 -10 -10 -16 -24 -13 -32 3 -8 -1 -14 -8 -14 -13 0 -31 -27
-28 -42 1 -5 -2 -8 -8 -8 -5 0 -10 -9 -10 -20 0 -11 -3 -20 -8 -20 -7 0 -21
-22 -44 -72 -7 -16 -16 -28 -20 -28 -4 0 -8 -7 -8 -15 0 -8 -4 -15 -8 -15 -5
0 -23 -22 -40 -48 -17 -26 -42 -54 -56 -62 -14 -7 -26 -19 -26 -27 0 -7 -4
-12 -9 -11 -4 2 -27 -17 -49 -41 -26 -26 -47 -41 -56 -38 -10 4 -17 -2 -22
-16 -11 -37 -25 -49 -41 -36 -11 10 -12 9 -7 -5 4 -11 1 -16 -10 -16 -19 0
-65 -28 -83 -50 -7 -8 -13 -11 -13 -7 0 5 -13 -1 -29 -12 -16 -12 -39 -21 -51
-21 -11 0 -18 -5 -15 -10 3 -5 -1 -10 -9 -10 -9 0 -16 -4 -16 -9 0 -5 -16 -8
-35 -7 -22 1 -35 -3 -35 -11 0 -7 -7 -13 -15 -13 -26 0 -30 -1 -47 -17 -9 -8
-21 -12 -27 -9 -6 4 -19 2 -30 -4 -14 -7 -22 -7 -27 1 -5 8 -10 6 -17 -6 -7
-14 -11 -15 -18 -4 -6 11 -12 10 -27 -4 -15 -14 -25 -15 -45 -8 -19 8 -34 6
-54 -4 -25 -13 -29 -13 -35 3 -4 9 -7 12 -7 5 -1 -11 -125 -16 -163 -6 -23 6
-48 75 -48 133 0 84 -30 338 -50 429 -24 110 -44 164 -78 218 -39 61 -52 56
-52 -19 0 -35 -5 -80 -11 -100 -10 -37 -11 -38 -57 -38 -26 0 -78 -5 -116 -10
-40 -6 -73 -7 -78 -2 -5 5 -13 36 -18 68 -9 69 -28 114 -46 114 -19 0 -60 -65
-80 -125 -12 -39 -17 -103 -19 -294 -2 -134 -6 -246 -9 -248 -3 -3 -13 -2 -23
2 -10 5 -25 7 -34 6 -9 -1 -22 5 -29 14 -7 8 -18 15 -26 15 -7 0 -20 8 -30 18
-10 9 -20 17 -23 16 -3 -1 -15 5 -26 12 -11 7 -33 15 -50 17 -42 7 -75 18 -75
26 0 18 -44 52 -61 48 -11 -3 -16 -1 -13 4 3 5 -2 12 -10 15 -9 3 -16 13 -16
21 0 12 -3 13 -13 4 -11 -8 -20 -6 -37 9 -18 16 -25 17 -32 8 -5 -10 -8 -8 -8
5 0 9 -4 17 -10 17 -5 0 -10 9 -10 20 0 21 -15 27 -25 10 -3 -5 -11 -10 -16
-10 -6 0 -8 4 -4 9 3 5 -4 12 -15 16 -11 3 -20 13 -20 20 0 9 -6 12 -16 8 -12
-4 -15 -2 -12 8 6 19 -17 40 -37 33 -17 -7 -55 26 -55 47 0 8 -5 7 -17 -2 -15
-12 -16 -12 -10 4 5 13 1 17 -15 17 -16 0 -19 3 -11 11 14 14 -11 44 -27 34
-6 -3 -10 3 -10 15 0 15 -5 20 -14 17 -8 -3 -22 3 -32 14 -12 14 -13 19 -4 19
7 0 10 3 7 6 -4 4 -14 1 -23 -7 -14 -11 -17 -10 -26 5 -6 10 -18 26 -28 36
-10 10 -16 21 -12 24 3 3 -2 6 -11 6 -9 0 -17 7 -17 15 0 15 -42 65 -55 65 -3
0 -17 11 -31 25 -14 14 -29 25 -34 25 -6 0 -10 11 -10 25 0 14 5 25 11 25 5 0
7 -4 4 -10 -3 -6 1 -10 9 -10 23 0 20 17 -4 25 -18 6 -25 17 -21 38 1 4 -8 3
-19 -3 -17 -9 -20 -8 -20 7 0 15 -2 16 -10 3 -9 -13 -10 -13 -10 0 0 13 -1 13
-10 0 -8 -12 -10 -9 -10 12 0 15 -7 31 -16 36 -9 5 -15 12 -15 15 1 4 0 17 0
30 -1 16 -2 18 -6 5 -7 -26 -23 -22 -20 4 1 17 -4 24 -22 26 -19 3 -21 6 -10
13 12 8 12 10 0 18 -11 7 -10 10 5 14 13 3 10 5 -11 7 -16 1 -33 2 -37 1 -5 0
-8 16 -9 36 0 30 -2 34 -9 18 -8 -20 -8 -20 -16 -1 -5 13 -3 21 4 24 7 2 12 9
12 14 0 6 -3 8 -6 5 -12 -11 -44 13 -44 33 0 13 -7 20 -17 19 -11 0 -13 -3 -5
-6 6 -2 12 -9 12 -14 0 -6 -8 -5 -20 1 -16 8 -18 15 -11 29 7 12 6 22 -2 30
-9 9 -8 14 3 21 8 6 10 10 3 10 -6 0 -9 9 -6 20 4 14 1 20 -7 18 -7 -2 -15 4
-17 12 -3 12 -2 12 5 2 7 -10 11 -10 21 2 10 11 9 19 -1 35 -7 12 -19 21 -26
21 -7 0 -10 5 -7 10 10 16 21 12 33 -12 6 -13 11 -17 11 -9 1 8 -6 22 -15 32
-16 17 -13 50 3 48 19 -3 52 15 56 30 3 10 5 8 6 -7 0 -13 5 -21 10 -18 13 8
42 -4 35 -15 -3 -5 4 -9 15 -9 12 0 21 -5 21 -11 0 -6 7 -9 15 -5 8 3 15 1 15
-4 0 -14 -38 -12 -42 2 -2 6 -11 9 -18 6 -10 -4 -3 -11 20 -21 21 -9 41 -12
50 -7 21 11 44 -4 37 -24 -4 -9 -5 -16 -3 -16 3 0 11 -3 19 -6 12 -4 15 1 13
20 -2 14 1 26 5 26 5 0 9 -18 9 -40 0 -37 2 -40 28 -40 36 0 51 -11 49 -35 -1
-11 5 -21 16 -23 9 -2 17 2 17 8 0 6 -4 8 -10 5 -5 -3 -10 3 -10 14 0 12 5 20
12 19 19 -4 36 -22 31 -31 -3 -5 4 -4 16 2 17 10 21 9 21 -3 0 -10 6 -13 15
-10 14 6 20 -6 16 -29 -1 -4 12 -13 29 -18 16 -6 30 -16 30 -22 0 -7 5 -4 11
6 14 23 36 22 44 -4 5 -14 13 -19 26 -16 12 3 20 -2 25 -16 6 -20 7 -20 20 4
10 18 13 20 14 7 0 -22 23 -23 43 -4 13 14 15 72 2 84 -3 3 0 11 6 19 8 9 8
13 0 13 -6 0 -10 18 -9 45 1 25 6 45 11 45 4 0 5 5 2 10 -6 10 6 14 39 10 10
-1 15 3 12 8 -8 14 4 21 43 24 17 1 31 6 31 10 0 4 7 5 15 2 8 -4 12 -10 9
-15 -3 -5 0 -9 5 -9 6 0 11 9 11 20 0 24 15 26 28 5 8 -16 36 -16 60 -2 6 5
12 4 12 -1 0 -14 37 -21 48 -10 11 11 45 -19 37 -32 -3 -4 9 -10 25 -12 24 -4
27 -2 18 9 -8 11 -7 12 6 7 9 -3 16 -12 16 -20 0 -8 5 -14 10 -14 6 0 10 -9
10 -20 0 -11 6 -20 13 -20 7 0 20 -8 29 -17 35 -38 46 -43 52 -27 4 10 13 14
22 10 8 -3 12 -2 9 4 -8 13 1 13 26 0 15 -9 19 -7 19 5 0 10 5 13 12 9 8 -5 9
-2 5 9 -4 11 -1 17 7 17 8 0 17 6 19 13 4 9 8 8 16 -3 10 -13 13 -13 25 3 13
17 32 25 22 9 -2 -4 -1 -14 5 -22 7 -12 9 -12 9 3 0 10 4 16 9 13 5 -4 11 -1
13 6 2 6 15 0 31 -17 22 -25 27 -26 33 -12 5 15 9 15 35 1 16 -8 29 -20 29
-28 0 -7 10 -12 23 -12 16 1 23 -5 25 -22 2 -13 10 -26 18 -29 8 -3 14 -12 14
-20 0 -10 6 -12 23 -7 12 3 19 3 16 0 -6 -7 31 -51 42 -51 10 0 39 -33 39 -44
0 -6 4 -11 10 -11 5 0 7 -6 4 -14 -4 -10 0 -13 14 -9 16 4 21 -2 27 -33 5 -28
9 -34 16 -23 6 10 9 7 9 -12 0 -25 18 -39 55 -43 13 -1 14 25 2 41 -6 9 0 14
20 19 15 4 34 14 42 22 12 12 12 15 0 24 -11 7 -8 9 9 5 17 -4 22 -1 22 14 0
13 7 19 21 19 11 0 18 4 14 9 -8 13 42 64 54 56 6 -3 11 1 11 10 0 9 5 13 10
10 6 -4 8 -11 5 -16 -4 -5 -4 -9 -1 -9 2 0 11 -3 20 -6 11 -4 16 -1 16 10 0 9
7 16 15 16 8 0 15 6 16 13 0 10 2 10 6 0 6 -16 33 -17 33 -2 0 5 4 8 9 5 5 -4
12 0 14 6 3 8 6 6 6 -4 1 -10 8 -18 16 -18 8 0 15 -6 15 -12 1 -7 7 -2 15 12
l14 25 13 -32 c8 -21 19 -33 31 -33 10 0 15 -4 12 -10 -3 -6 1 -7 9 -4 10 4
16 1 16 -7 0 -11 3 -11 10 1 8 13 10 13 10 -2 0 -16 41 -68 54 -68 3 0 6 7 6
16 0 14 3 14 16 3 13 -10 17 -10 24 0 4 8 13 10 20 6 7 -4 16 -2 21 6 6 10 9
11 9 2 0 -7 5 -13 11 -13 6 0 8 7 5 16 -5 13 -1 14 24 9 19 -4 30 -3 30 4 0 6
7 11 15 11 8 0 15 -9 15 -19 0 -10 7 -21 15 -25 9 -3 15 0 15 9 0 8 5 15 11
15 5 0 8 -4 4 -9 -3 -5 0 -13 6 -17 6 -3 15 -1 19 6 5 8 15 4 36 -15 23 -21
30 -24 32 -12 4 20 32 10 32 -12 1 -14 2 -14 14 2 13 17 32 25 22 8 -6 -10 16
-61 27 -61 4 0 7 -9 7 -19 0 -11 5 -23 10 -26 7 -4 9 3 6 19 -3 15 -1 24 5 21
5 -4 9 -17 9 -30 0 -13 5 -25 11 -27 6 -2 13 -27 15 -56 2 -40 0 -54 -14 -62
-15 -10 -15 -11 -1 -7 13 4 15 1 11 -15 -4 -18 -3 -19 17 -9 11 7 21 16 21 22
0 6 4 8 9 4 5 -3 12 -1 16 4 3 6 12 8 19 5 7 -3 16 2 20 11 4 11 13 14 25 10
10 -3 24 1 31 10 7 8 23 15 36 15 12 0 29 8 36 19 7 10 27 25 44 34 49 25 99
82 114 129 7 23 19 50 25 58 6 8 12 31 14 50 2 19 7 40 12 47 7 7 6 14 -1 18
-7 4 -8 11 -1 18 5 7 8 28 6 47 -1 19 2 41 7 48 7 8 7 12 -2 12 -8 0 -10 11
-5 39 5 28 2 42 -9 54 -9 9 -16 27 -16 42 0 40 -21 115 -32 115 -6 0 -8 7 -4
15 3 8 0 15 -7 15 -8 0 -6 4 3 10 13 8 12 10 -2 10 -10 0 -18 7 -18 15 0 8 -4
15 -9 15 -5 0 -12 13 -16 29 -3 16 -13 32 -21 35 -9 3 -12 11 -9 17 4 6 -2 13
-13 16 -11 2 -25 16 -32 29 -8 13 -19 24 -27 24 -7 0 -13 7 -13 15 0 8 -7 15
-15 15 -8 0 -15 7 -15 15 0 21 -38 57 -52 49 -6 -4 -8 -3 -5 2 3 6 -8 19 -24
29 -16 11 -29 25 -29 32 0 8 -7 10 -17 6 -16 -6 -16 -5 -4 10 12 15 11 17 -3
17 -9 0 -16 8 -17 18 0 14 -2 14 -9 -3 -8 -19 -9 -19 -9 3 -1 14 -10 26 -26
32 -14 5 -25 14 -25 20 0 6 5 8 10 5 6 -3 10 -1 10 5 0 7 -9 14 -20 17 -11 3
-20 12 -20 20 0 13 -3 13 -15 3 -12 -10 -15 -10 -15 0 0 9 -4 9 -17 -1 -15
-12 -16 -12 -10 4 6 15 3 17 -12 12 -16 -5 -19 -2 -15 17 2 13 2 17 -2 11 -3
-7 -10 -13 -15 -13 -4 0 -6 6 -4 13 6 15 -40 37 -74 36 -15 0 -21 -3 -15 -5 8
-4 9 -17 3 -45 -5 -22 -7 -44 -4 -49 2 -4 -2 -13 -10 -20 -15 -13 -10 -35 6
-25 5 4 9 -1 9 -10 0 -9 -4 -14 -9 -10 -5 3 -12 1 -16 -5 -3 -5 -2 -10 4 -10
7 0 7 -8 1 -26 -14 -35 -12 -72 3 -77 6 -2 -6 -7 -27 -11 -29 -6 -36 -10 -25
-17 12 -7 12 -11 1 -18 -8 -4 -13 -17 -12 -27 4 -31 1 -44 -9 -44 -5 0 -12 8
-14 18 -3 9 -5 4 -6 -13 -1 -23 -3 -27 -11 -15 -7 11 -10 12 -10 2 0 -21 -27
-45 -33 -29 -3 6 -6 0 -6 -15 -1 -26 -21 -42 -21 -17 0 6 -8 3 -17 -7 -17 -17
-18 -17 -21 0 -5 21 -28 15 -26 -8 1 -9 -2 -16 -7 -16 -5 0 -9 6 -9 13 0 9 -3
8 -9 -2 -5 -7 -13 -11 -19 -7 -6 3 -13 -2 -15 -11 -3 -13 -5 -10 -6 7 -1 20
-3 22 -11 10 -7 -11 -10 -11 -10 -2 0 7 -5 10 -11 6 -6 -3 -15 0 -20 7 -6 10
-9 11 -9 2 0 -7 -7 -13 -16 -13 -8 0 -12 5 -9 10 3 6 1 10 -5 10 -6 0 -8 5 -5
10 3 6 1 10 -4 10 -6 0 -11 -3 -11 -7 0 -5 -13 -8 -29 -8 -25 0 -28 3 -20 18
7 13 6 17 -6 17 -8 0 -15 9 -15 19 0 14 -5 18 -19 14 -15 -4 -20 3 -25 31 -6
33 -26 51 -26 24 0 -7 -11 -1 -24 12 -15 17 -19 27 -12 33 8 5 7 9 -2 15 -14
10 -13 33 3 44 6 5 6 8 -1 8 -6 0 -12 18 -13 40 -3 68 -5 80 -13 80 -7 0 -5
41 2 60 3 7 3 9 -4 57 -5 37 -3 41 12 37 16 -5 15 -5 0 6 -10 6 -18 22 -18 36
0 14 -4 22 -10 19 -5 -3 -10 -1 -10 4 0 6 4 11 8 11 5 0 9 20 10 45 0 35 -3
45 -16 46 -11 0 -12 2 -4 6 6 2 9 10 5 16 -4 7 0 8 13 4 18 -7 18 -7 0 8 -11
8 -23 15 -28 15 -4 0 -8 8 -8 19 0 16 -8 18 -52 18 -29 1 -45 -1 -35 -4 23 -6
12 -23 -16 -24 -21 0 -21 -1 -2 -9 18 -8 19 -9 1 -9 -12 -1 -16 -6 -12 -16 5
-13 2 -14 -15 -4 -11 6 -18 16 -15 24 7 20 -3 24 -36 13 -21 -8 -26 -13 -17
-19 17 -10 7 -21 -13 -14 -10 4 -14 18 -13 40 1 19 -2 35 -7 35 -4 0 -8 -4 -8
-10 0 -17 -25 -11 -38 10 -14 23 -37 27 -29 6 4 -10 1 -13 -9 -9 -18 7 -18 8
2 27 8 9 11 16 5 16 -6 0 -11 16 -11 35 0 24 -5 35 -15 35 -10 0 -13 9 -10 35
3 20 0 35 -5 35 -6 0 -10 -4 -10 -10 0 -23 -39 -9 -48 18 -9 24 -10 23 -7 -15
2 -24 0 -43 -4 -43 -12 0 -32 26 -25 32 2 3 -6 6 -20 6 -17 0 -23 -5 -19 -14
3 -8 12 -14 20 -14 8 0 11 -5 8 -10 -4 -6 -11 -7 -17 -4 -7 5 -9 0 -6 -14 4
-14 2 -19 -8 -15 -15 6 -11 -34 6 -51 7 -7 2 -18 -17 -34 -25 -21 -26 -25 -12
-35 9 -7 14 -18 11 -25 -2 -7 0 -12 5 -11 19 3 21 -2 13 -31 -6 -22 -5 -32 6
-38 12 -7 11 -12 -6 -30 -16 -17 -17 -22 -6 -22 10 0 13 -6 9 -16 -4 -11 -8
-12 -13 -4 -5 7 -9 2 -12 -14 -3 -15 0 -31 8 -37 21 -18 17 -39 -8 -40 -17 -1
-19 -2 -5 -6 18 -5 24 -33 7 -33 -5 0 -10 -9 -10 -20 0 -11 -6 -20 -12 -20 -9
0 -10 -3 -2 -8 18 -12 21 -36 7 -51 -17 -17 -30 -6 -15 12 16 18 7 25 -24 19
-18 -3 -23 -9 -19 -22 3 -10 -1 -25 -10 -33 -8 -9 -15 -20 -15 -26 0 -6 -4
-11 -10 -11 -5 0 -7 7 -4 15 4 10 0 15 -14 15 -11 0 -23 -6 -25 -12 -3 -8 -6
-5 -6 6 -1 14 -6 17 -26 12 -18 -5 -25 -2 -25 9 0 17 -16 20 -25 5 -11 -18
-22 -10 -28 20 -5 24 -12 30 -34 31 -16 1 -31 1 -35 0 -5 0 -8 5 -8 12 0 15
-58 49 -71 41 -6 -3 -7 12 -3 38 7 39 6 42 -9 29 -10 -7 -18 -11 -18 -7 -2 9
-6 25 -9 34 -1 4 -2 15 -1 25 1 9 -4 17 -13 17 -9 0 -16 -6 -17 -12 0 -9 -2
-9 -6 1 -4 11 -7 11 -14 0 -12 -21 -24 -2 -24 40 0 33 -2 37 -22 33 -18 -3
-23 0 -22 14 0 11 3 14 6 7 2 -7 9 -13 14 -13 10 0 5 97 -5 107 -6 6 -10 -35
-7 -67 1 -10 -5 -7 -18 8 -19 22 -19 52 0 52 5 0 9 12 9 27 0 14 -3 23 -7 20
-3 -4 -13 -2 -20 5 -12 10 -11 14 9 25 21 13 20 13 -22 9 -25 -3 -37 -3 -27 0
12 4 17 15 16 37 0 27 -2 29 -9 12 -8 -18 -9 -18 -9 -2 -1 10 -5 15 -11 12 -5
-3 -10 -1 -10 4 0 6 6 11 13 11 18 0 37 46 24 59 -8 8 -7 11 1 11 8 0 11 10 8
25 -4 19 0 25 14 25 22 0 53 28 45 41 -4 5 2 9 12 10 13 0 14 2 4 6 -8 3 -20
-2 -27 -12 -12 -16 -16 -16 -31 -4 -9 8 -14 9 -10 2 4 -6 3 -14 -3 -18 -5 -3
-10 1 -10 9 0 10 -9 16 -22 16 -18 0 -20 2 -8 9 8 6 17 8 20 6 3 -1 10 3 17
10 10 11 10 15 0 18 -7 3 -5 6 5 6 9 1 20 6 24 13 5 8 2 9 -9 5 -9 -3 -19 -1
-23 5 -4 6 -3 8 4 4 6 -3 13 -2 16 3 7 11 -22 23 -35 15 -5 -3 -9 0 -9 5 0 6
3 11 8 12 4 0 15 2 25 4 9 2 17 -1 17 -6 0 -5 4 -9 9 -9 4 0 6 11 3 25 -2 14
0 25 5 25 5 0 8 -13 7 -30 -2 -30 20 -43 29 -17 2 6 3 -1 1 -18 -3 -18 -1 -25
4 -17 11 16 42 5 36 -13 -5 -12 35 -30 45 -20 2 3 -1 5 -7 5 -7 0 -12 8 -12
18 -1 21 -23 52 -39 52 -9 0 -9 5 -1 20 8 15 8 20 -2 21 -7 1 -17 2 -23 4 -5
1 -19 3 -29 3 -16 2 -17 5 -8 14 10 10 14 10 20 1 6 -10 17 -8 45 7 24 13 36
16 35 8 -2 -7 2 -12 8 -11 6 1 16 -9 22 -22 8 -16 8 -25 1 -25 -5 0 -12 6 -15
14 -10 25 -34 28 -34 3 0 -16 3 -18 9 -8 7 11 10 11 17 0 5 -8 17 -20 26 -27
15 -12 17 -11 16 10 -1 13 -6 29 -12 36 -7 10 -5 16 5 23 9 6 10 12 4 17 -15
11 -13 62 3 62 7 0 12 -8 11 -17 -4 -23 10 -63 21 -63 14 0 22 20 8 20 -8 1
-6 6 6 15 17 13 18 15 3 15 -27 0 -20 17 11 25 15 4 21 10 15 12 -7 3 -12 14
-12 26 1 16 2 18 6 5 4 -17 33 -14 33 4 0 5 -4 6 -10 3 -5 -3 -10 1 -10 10 0
12 4 14 19 5 13 -6 17 -17 14 -30 -4 -15 -2 -19 10 -15 17 7 50 -22 42 -36 -4
-5 -13 -9 -21 -9 -8 0 -14 -4 -14 -10 0 -5 12 -10 26 -10 26 0 26 1 20 55 -6
56 -1 63 38 56 4 -1 14 6 21 16 11 14 16 16 26 6 9 -9 9 -13 2 -13 -6 0 -9 -9
-6 -20 3 -11 10 -17 17 -13 6 4 5 -1 -3 -10 -15 -18 -31 -14 -31 9 0 8 -10 14
-25 14 -33 0 -34 -34 -2 -61 27 -22 37 -24 37 -4 0 22 15 18 33 -7 15 -22 15
-21 12 25 -4 48 1 56 24 35 10 -9 12 -10 7 -1 -4 7 2 17 14 23 16 9 20 8 20
-5 0 -9 -4 -13 -10 -10 -15 9 -12 -4 4 -21 17 -16 40 -19 31 -4 -4 6 -3 19 1
28 10 22 12 62 3 62 -4 0 -12 -6 -19 -14 -6 -8 -19 -12 -27 -9 -12 5 -14 3 -8
-8 8 -12 6 -12 -8 0 -22 18 -11 34 19 28 13 -2 24 0 24 4 0 5 -6 9 -12 9 -9 0
-8 4 2 10 8 5 11 10 5 10 -5 0 -2 5 8 11 10 6 22 8 25 4 4 -4 1 -10 -5 -12
-18 -6 -16 -23 2 -23 9 0 15 -9 15 -23 0 -12 9 -30 20 -40 21 -18 26 -37 10
-37 -6 0 -5 -8 2 -20 9 -14 14 -16 20 -7 6 9 10 8 17 -3 6 -8 13 -11 16 -8 10
9 -4 28 -19 28 -8 0 -13 11 -12 28 1 24 5 28 21 24 11 -3 14 -7 7 -10 -6 -2
-12 -8 -12 -14 0 -6 6 -6 15 2 12 10 18 10 30 0 25 -21 17 -3 -14 31 -16 17
-35 29 -43 27 -16 -6 -48 9 -48 22 0 6 11 10 25 10 14 0 25 -5 25 -11 0 -5 5
-7 10 -4 6 3 10 15 10 27 0 17 -2 18 -15 8 -23 -19 -30 -4 -9 18 14 14 26 17
44 11 18 -5 20 -7 6 -8 -15 -1 -16 -4 -6 -16 9 -10 9 -15 1 -15 -6 0 -11 -4
-11 -10 0 -5 6 -8 13 -6 6 1 9 1 5 -1 -13 -7 -9 -33 6 -48 12 -12 15 -12 20 1
3 8 2 12 -4 9 -6 -3 -7 1 -4 10 5 12 9 13 20 4 8 -7 17 -9 20 -6 9 8 -4 39
-13 34 -5 -3 -14 2 -22 10 -12 13 -11 14 9 8 20 -6 22 -5 18 19 -5 23 -3 26
15 20 13 -4 17 -2 13 5 -4 6 -2 11 3 11 6 0 11 -7 11 -15z m76 -33 c-11 -10
-15 4 -8 28 l7 25 3 -23 c2 -13 1 -26 -2 -30z m-534 16 c-7 -7 -12 -8 -12 -2
0 6 3 14 7 17 3 4 9 5 12 2 2 -3 -1 -11 -7 -17z m902 7 c-4 -8 -11 -12 -16 -9
-6 4 -5 10 3 15 19 12 19 11 13 -6z m-821 -12 c-7 -2 -19 -2 -25 0 -7 3 -2 5
12 5 14 0 19 -2 13 -5z m67 -8 c0 -8 -4 -15 -10 -15 -5 0 -7 7 -4 15 4 8 8 15
10 15 2 0 4 -7 4 -15z m580 0 c-7 -8 -17 -15 -22 -15 -6 0 -5 7 2 15 7 8 17
15 22 15 6 0 5 -7 -2 -15z m384 0 c3 -8 1 -15 -4 -15 -6 0 -10 7 -10 15 0 8 2
15 4 15 2 0 6 -7 10 -15z m-924 -4 c0 -6 -4 -13 -10 -16 -5 -3 -10 1 -10 9 0
9 5 16 10 16 6 0 10 -4 10 -9z m863 -6 c-3 -9 -8 -14 -10 -11 -3 3 -2 9 2 15
9 16 15 13 8 -4z m-1058 -16 c11 -17 -1 -21 -15 -4 -8 9 -8 15 -2 15 6 0 14
-5 17 -11z m59 -21 c8 -6 7 -11 -4 -17 -20 -13 -30 -4 -26 22 6 33 7 33 13 17
3 -8 11 -18 17 -22z m476 22 c0 -5 -5 -10 -11 -10 -5 0 -7 5 -4 10 3 6 8 10
11 10 2 0 4 -4 4 -10z m655 -33 c6 -31 -8 -42 -32 -27 -17 11 -17 11 0 6 18
-6 24 8 8 18 -5 3 -7 15 -4 27 7 25 22 12 28 -24z m35 15 c-6 -2 -10 -10 -10
-18 0 -9 5 -12 10 -9 13 8 13 2 -2 -30 -6 -14 -17 -25 -24 -25 -7 0 -14 -6
-17 -12 -3 -7 -4 -3 -4 10 1 14 6 21 14 18 9 -4 13 4 13 22 0 44 11 76 21 60
5 -7 4 -14 -1 -16z m-355 8 c3 -5 11 -10 16 -10 6 0 8 4 5 9 -3 5 6 9 19 9 15
0 30 -9 36 -19 6 -13 6 -19 -1 -19 -5 0 -10 7 -10 15 0 20 -9 19 -47 -4 -27
-17 -33 -18 -43 -6 -12 14 -6 35 10 35 5 0 12 -4 15 -10z m255 -11 c0 -6 -4
-7 -10 -4 -5 3 -10 11 -10 16 0 6 5 7 10 4 6 -3 10 -11 10 -16z m-1290 -11 c0
-5 -4 -6 -10 -3 -5 3 -10 2 -10 -4 0 -5 -11 -22 -24 -36 -19 -21 -25 -23 -30
-10 -3 9 0 15 9 15 8 0 15 7 15 15 0 8 5 15 10 15 6 0 10 7 10 15 0 9 6 12 15
9 8 -4 15 -10 15 -16z m50 12 c0 -5 -5 -10 -11 -10 -5 0 -7 5 -4 10 3 6 8 10
11 10 2 0 4 -4 4 -10z m72 -7 c-6 -2 -10 -9 -6 -14 3 -5 0 -9 -5 -9 -12 0 -14
13 -4 23 3 4 11 7 17 6 6 0 5 -3 -2 -6z m1451 -30 c-9 -23 -20 -14 -15 13 3
17 7 22 12 13 5 -7 6 -18 3 -26z m-579 12 c3 -8 1 -15 -3 -15 -5 0 -11 7 -15
15 -3 8 -1 15 3 15 5 0 11 -7 15 -15z m191 5 c3 -5 1 -10 -4 -10 -6 0 -11 5
-11 10 0 6 2 10 4 10 3 0 8 -4 11 -10z m49 -12 c8 24 22 27 46 12 10 -6 11
-10 3 -10 -7 0 -13 -5 -13 -11 0 -5 5 -7 10 -4 6 3 10 -1 10 -10 0 -10 -6 -15
-13 -12 -8 3 -20 -3 -27 -13 -13 -18 -14 -18 -26 -2 -8 9 -13 31 -13 47 1 29
1 29 8 5 l7 -25 8 23z m307 2 c-7 -4 -11 -13 -9 -21 2 -9 -4 -13 -17 -11 -21
4 -38 23 -29 31 3 3 8 0 12 -7 6 -8 12 -6 22 8 7 10 18 16 23 13 5 -3 4 -9 -2
-13z m-1361 0 c0 -5 -5 -10 -11 -10 -5 0 -7 5 -4 10 3 6 8 10 11 10 2 0 4 -4
4 -10z m977 -10 c-1 -15 -6 -19 -22 -14 -16 4 -17 3 -5 -5 13 -9 13 -12 -1
-27 -16 -15 -17 -15 -24 7 -4 13 -3 25 2 26 6 2 19 10 29 18 24 18 23 18 21
-5z m-1460 -12 c-3 -8 -6 -5 -6 6 -1 11 2 17 5 13 3 -3 4 -12 1 -19z m480 -30
c-3 -7 -5 -2 -5 12 0 14 2 19 5 13 2 -7 2 -19 0 -25z m-275 -3 c10 6 10 5 2
-4 -9 -10 -17 -10 -32 -2 -10 6 -22 7 -26 4 -3 -3 -6 -2 -6 4 0 19 14 23 31 7
10 -9 23 -13 31 -9z m358 -23 c0 -10 -4 -10 -16 2 -8 9 -12 21 -8 27 7 13 24
-7 24 -29z m1324 18 c-22 -9 -29 -6 -20 9 4 6 14 7 23 4 15 -6 14 -7 -3 -13z
m-179 0 c3 -5 1 -10 -4 -10 -6 0 -11 5 -11 10 0 6 2 10 4 10 3 0 8 -4 11 -10z
m280 0 c3 -5 1 -10 -4 -10 -6 0 -11 5 -11 10 0 6 2 10 4 10 3 0 8 -4 11 -10z
m-1698 -33 c-2 -40 -31 -41 -33 -2 -1 14 2 22 7 19 5 -3 9 0 9 5 0 6 4 11 10
11 5 0 9 -15 7 -33z m1653 29 c0 -3 -4 -8 -10 -11 -5 -3 -10 -1 -10 4 0 6 5
11 10 11 6 0 10 -2 10 -4z m-1787 -21 c-3 -9 -8 -14 -10 -11 -3 3 -2 9 2 15 9
16 15 13 8 -4z m1733 -24 c1 -17 -1 -19 -13 -9 -8 6 -18 19 -24 29 -8 16 -7
17 13 10 14 -5 23 -17 24 -30z m169 30 c3 -5 1 -12 -5 -16 -5 -3 -10 1 -10 9
0 18 6 21 15 7z m-69 -16 c13 -13 13 -15 1 -15 -8 0 -17 7 -21 15 -3 8 -3 15
0 15 3 0 12 -7 20 -15z m-2011 -5 c3 -5 1 -10 -4 -10 -6 0 -11 5 -11 10 0 6 2
10 4 10 3 0 8 -4 11 -10z m95 -45 c-18 -22 -32 -18 -20 5 6 11 7 20 3 20 -4 0
-1 5 7 10 19 12 27 -15 10 -35z m140 16 c0 -6 -4 -13 -10 -16 -5 -3 -10 1 -10
9 0 9 5 16 10 16 6 0 10 -4 10 -9z m1752 -14 c-15 -17 -17 -17 -20 -3 -2 9 -8
14 -13 11 -5 -4 -9 -2 -9 3 0 5 13 9 29 8 28 -1 29 -2 13 -19z m108 14 c0 -6
-4 -13 -10 -16 -5 -3 -10 -11 -10 -16 0 -6 5 -7 10 -4 6 3 15 -6 20 -20 12
-33 12 -35 -1 -35 -5 0 -7 5 -4 10 3 6 1 10 -4 10 -6 0 -11 -7 -11 -15 0 -8
-2 -15 -4 -15 -2 0 -11 -3 -19 -6 -8 -3 -17 2 -21 12 -5 14 -4 15 9 4 12 -10
15 -10 15 4 0 9 -4 16 -10 16 -5 0 -10 5 -10 11 0 6 7 9 15 5 12 -4 14 0 9 19
-4 16 -2 25 6 25 6 0 8 5 5 10 -3 6 -1 10 4 10 6 0 11 -4 11 -9z m-1933 -19
c8 -5 9 -13 3 -22 -8 -13 -10 -13 -10 2 0 9 -6 19 -12 21 -7 3 -8 6 -3 6 6 0
15 -3 22 -7z m-54 -27 c-6 -18 13 -20 21 -2 3 6 4 1 3 -13 -1 -17 -8 -25 -20
-23 -13 1 -17 -4 -12 -15 18 -45 18 -47 5 -35 -13 12 -23 90 -13 106 8 13 22
-3 16 -18z m-38 -5 c3 -5 2 -10 -4 -10 -5 0 -13 5 -16 10 -3 6 -2 10 4 10 5 0
13 -4 16 -10z m2150 -20 c-3 -5 -11 -10 -16 -10 -6 0 -7 5 -4 10 3 6 11 10 16
10 6 0 7 -4 4 -10z m25 -35 c9 -10 9 -15 1 -15 -6 0 -11 4 -11 9 0 5 -8 12
-17 14 -15 4 -15 5 -2 6 9 0 22 -6 29 -14z m2 -37 c-9 -9 -15 -9 -24 0 -9 9
-7 12 12 12 19 0 21 -3 12 -12z m43 2 c3 -6 -1 -7 -9 -4 -18 7 -21 14 -7 14 6
0 13 -4 16 -10z m-35 -90 c0 -5 -4 -10 -10 -10 -5 0 -10 5 -10 10 0 6 5 10 10
10 6 0 10 -4 10 -10z m-2120 -40 c0 -5 -8 -10 -17 -10 -15 0 -16 2 -3 10 19
12 20 12 20 0z m2266 -12 c4 -7 3 -8 -4 -4 -7 4 -12 2 -12 -3 0 -6 -4 -11 -8
-11 -5 0 -9 7 -9 15 0 18 23 20 33 3z m29 -28 c3 -6 -1 -7 -9 -4 -18 7 -21 14
-7 14 6 0 13 -4 16 -10z m-1595 -90 c0 -5 -2 -10 -4 -10 -3 0 -8 5 -11 10 -3
6 -1 10 4 10 6 0 11 -4 11 -10z m51 -17 c-8 -15 -10 -15 -11 -2 0 17 10 32 18
25 2 -3 -1 -13 -7 -23z m122 -139 c-4 -11 -9 -12 -19 -3 -17 14 -9 30 11 23 7
-3 11 -12 8 -20z m-850 1 c-3 -9 -8 -14 -10 -11 -3 3 -2 9 2 15 9 16 15 13 8
-4z m2397 -35 c0 -5 -2 -10 -4 -10 -3 0 -8 5 -11 10 -3 6 -1 10 4 10 6 0 11
-4 11 -10z m-1270 -45 c0 -8 -2 -15 -4 -15 -2 0 -6 7 -10 15 -3 8 -1 15 4 15
6 0 10 -7 10 -15z m-1065 -45 c3 -6 -1 -7 -9 -4 -18 7 -21 14 -7 14 6 0 13 -4
16 -10z m248 -257 c-4 -11 -8 -13 -11 -5 -2 7 -8 10 -13 6 -5 -3 -9 0 -9 5 0
6 9 11 20 11 14 0 18 -5 13 -17z m-1383 -467 c0 -2 -7 -6 -15 -10 -8 -3 -15
-1 -15 4 0 6 7 10 15 10 8 0 15 -2 15 -4z m6 -66 c20 8 24 6 25 -8 0 -9 2 -41
5 -69 3 -34 1 -53 -5 -53 -6 0 -11 14 -11 31 0 17 -5 39 -10 50 -7 13 -7 19 0
19 5 0 10 5 10 11 0 7 -10 9 -25 5 -20 -5 -25 -3 -24 11 0 10 3 13 5 6 4 -8
13 -9 30 -3z m61 -52 c-3 -8 -6 -5 -6 6 -1 11 2 17 5 13 3 -3 4 -12 1 -19z
m48 -8 c3 -5 1 -10 -4 -10 -6 0 -11 5 -11 10 0 6 2 10 4 10 3 0 8 -4 11 -10z
m55 -20 c0 -5 -9 -10 -21 -10 -11 0 -17 5 -14 10 3 6 13 10 21 10 8 0 14 -4
14 -10z m-80 -14 c0 -8 -5 -18 -11 -22 -8 -4 -7 -9 2 -15 12 -7 12 -9 0 -9 -9
0 -12 -10 -9 -34 l4 -34 -28 19 c-37 27 -35 46 4 40 4 0 10 15 14 34 6 34 24
49 24 21z m187 -18 c-3 -7 -5 -2 -5 12 0 14 2 19 5 13 2 -7 2 -19 0 -25z m628
-16 c-3 -3 -11 0 -18 7 -9 10 -8 11 6 5 10 -3 15 -9 12 -12z m-30 -12 c3 -5
-1 -10 -9 -10 -8 0 -18 5 -21 10 -3 6 1 10 9 10 8 0 18 -4 21 -10z m-815 -80
c0 -5 -2 -10 -4 -10 -3 0 -8 5 -11 10 -3 6 -1 10 4 10 6 0 11 -4 11 -10z
m1330 -34 c0 -2 -7 -9 -15 -16 -12 -10 -15 -10 -15 4 0 9 7 16 15 16 8 0 15
-2 15 -4z m-569 -110 c14 8 10 -6 -6 -22 -13 -14 -15 -12 -14 13 0 15 3 22 6
15 2 -6 9 -10 14 -6z m2272 -182 c-3 -8 -6 -14 -7 -12 -1 2 -7 11 -14 20 -11
14 -10 16 7 11 12 -3 17 -11 14 -19z m-2738 -114 c3 -5 1 -10 -4 -10 -6 0 -11
5 -11 10 0 6 2 10 4 10 3 0 8 -4 11 -10z m2690 -1100 c-3 -5 -12 -10 -19 -10
-17 0 -46 -43 -46 -69 0 -19 -18 -31 -47 -31 -19 0 -196 -70 -203 -80 -3 -4
-15 -6 -27 -5 -12 1 -20 -2 -18 -6 6 -9 -24 -21 -36 -13 -5 3 -18 -5 -28 -18
-32 -38 -36 -12 -6 32 81 117 244 209 373 210 40 0 61 -4 57 -10z m-190 -341
c0 -19 -15 -37 -57 -72 -32 -26 -62 -47 -67 -47 -5 0 -11 10 -14 21 -5 17 7
34 51 76 61 57 87 64 87 22z m53 -95 c2 -15 -9 -31 -40 -55 -24 -19 -51 -44
-61 -56 -23 -28 -43 -29 -50 -3 -6 22 22 62 78 113 35 31 69 32 73 1z m50 -99
c10 -22 9 -28 -10 -43 -12 -9 -47 -41 -78 -69 -31 -29 -60 -53 -63 -53 -4 0
-7 16 -7 35 0 30 10 46 58 95 32 33 65 60 73 60 9 0 21 -11 27 -25z m52 -116
c15 -36 17 -34 -86 -107 -75 -52 -102 -55 -91 -10 7 28 130 148 151 148 7 0
19 -14 26 -31z"/>
<path d="M4198 4983 c7 -3 16 -2 19 1 4 3 -2 6 -13 5 -11 0 -14 -3 -6 -6z"/>
<path d="M3846 4878 c5 -8 -2 -9 -24 -5 -19 4 -32 2 -32 -3 0 -6 7 -10 16 -10
8 0 12 -4 9 -10 -9 -15 4 -12 22 5 8 8 19 13 24 10 5 -4 9 1 9 9 0 9 -7 16
-16 16 -9 0 -12 -5 -8 -12z"/>
<path d="M3890 4870 c0 -5 5 -10 11 -10 5 0 7 5 4 10 -3 6 -8 10 -11 10 -2 0
-4 -4 -4 -10z"/>
<path d="M3635 4840 c3 -5 11 -10 16 -10 6 0 7 5 4 10 -3 6 -11 10 -16 10 -6
0 -7 -4 -4 -10z"/>
<path d="M4074 4834 c3 -8 -1 -14 -8 -14 -9 0 -12 -7 -9 -20 3 -11 9 -20 14
-20 5 0 6 7 3 15 -4 9 0 15 10 15 9 0 16 6 16 14 0 8 6 16 13 19 6 2 -1 4 -16
4 -20 0 -27 -4 -23 -13z"/>
<path d="M4155 4840 c-3 -5 -2 -10 4 -10 5 0 13 5 16 10 3 6 2 10 -4 10 -5 0
-13 -4 -16 -10z"/>
<path d="M4038 4833 c7 -3 16 -2 19 1 4 3 -2 6 -13 5 -11 0 -14 -3 -6 -6z"/>
<path d="M3720 4819 c0 -5 5 -7 10 -4 6 3 10 8 10 11 0 2 -4 4 -10 4 -5 0 -10
-5 -10 -11z"/>
<path d="M3814 4814 c3 -9 6 -18 6 -20 0 -2 4 -4 9 -4 5 0 7 9 4 20 -3 11 -10
20 -15 20 -6 0 -7 -7 -4 -16z"/>
<path d="M4358 4798 c5 -7 12 -22 15 -33 4 -16 5 -14 6 6 1 17 -5 29 -15 33
-13 5 -14 3 -6 -6z"/>
<path d="M3546 4785 c-3 -8 -1 -15 3 -15 5 0 11 7 15 15 3 8 1 15 -3 15 -5 0
-11 -7 -15 -15z"/>
<path d="M3780 4784 c0 -10 -6 -14 -15 -10 -8 3 -14 2 -14 -2 3 -19 -2 -23
-15 -13 -11 9 -16 9 -22 0 -4 -7 -3 -9 3 -6 5 3 16 -3 23 -14 8 -10 21 -19 30
-18 9 0 10 2 3 5 -7 3 -9 12 -6 20 3 7 9 11 14 8 5 -3 9 6 9 20 0 14 -2 26 -5
26 -3 0 -5 -7 -5 -16z"/>
<path d="M4290 4773 c0 -12 5 -25 11 -28 17 -11 18 -2 4 25 -14 24 -14 24 -15
3z"/>
<path d="M4555 4780 c-3 -5 -1 -10 4 -10 6 0 11 5 11 10 0 6 -2 10 -4 10 -3 0
-8 -4 -11 -10z"/>
<path d="M4630 4776 c0 -9 5 -16 10 -16 6 0 10 4 10 9 0 6 -4 13 -10 16 -5 3
-10 -1 -10 -9z"/>
<path d="M3300 4770 c-13 -9 -13 -10 0 -10 9 0 11 -3 5 -8 -23 -17 -33 -47
-19 -60 8 -7 19 -10 26 -6 7 5 8 3 3 -6 -5 -9 -4 -11 3 -6 17 10 15 26 -3 26
-18 0 -20 21 -4 37 17 17 7 45 -11 33z"/>
<path d="M3590 4769 c0 -6 -4 -8 -8 -5 -4 2 -9 -6 -10 -20 -1 -17 3 -24 16
-23 9 0 12 3 5 5 -7 3 -9 12 -6 20 3 7 9 12 13 9 5 -3 11 -1 14 4 3 5 -1 11
-9 15 -8 3 -15 1 -15 -5z"/>
<path d="M3650 4775 c0 -6 6 -17 13 -24 9 -10 9 -15 0 -18 -13 -5 -6 -33 9
-33 5 0 7 4 4 9 -4 5 -2 21 4 36 7 19 7 24 -1 19 -6 -3 -15 0 -20 7 -5 8 -9 9
-9 4z"/>
<path d="M3423 4740 c12 -31 37 -37 44 -10 4 13 3 13 -5 1 -8 -11 -11 -9 -14
10 -1 13 -11 25 -20 27 -15 3 -15 0 -5 -28z"/>
<path d="M3830 4759 c0 -5 5 -7 10 -4 6 3 10 8 10 11 0 2 -4 4 -10 4 -5 0 -10
-5 -10 -11z"/>
<path d="M3480 4745 c6 -7 20 -11 31 -8 12 4 25 0 30 -8 5 -8 9 -9 9 -4 0 20
-16 30 -48 32 -26 1 -31 -2 -22 -12z"/>
<path d="M4467 4753 c-10 -9 -9 -33 1 -33 4 0 8 9 8 20 0 23 0 22 -9 13z"/>
<path d="M3990 4740 c0 -5 5 -10 11 -10 5 0 7 5 4 10 -3 6 -8 10 -11 10 -2 0
-4 -4 -4 -10z"/>
<path d="M3388 4734 c-4 -3 -4 -12 -1 -20 6 -16 -13 -19 -22 -4 -3 6 -12 10
-18 10 -7 0 -6 -4 3 -10 13 -9 13 -11 0 -19 -10 -7 -6 -10 17 -9 21 1 33 7 36
18 5 20 -6 44 -15 34z"/>
<path d="M4130 4724 c0 -8 5 -12 10 -9 6 4 8 11 5 16 -9 14 -15 11 -15 -7z"/>
<path d="M4520 4730 c0 -5 5 -10 11 -10 5 0 7 5 4 10 -3 6 -8 10 -11 10 -2 0
-4 -4 -4 -10z"/>
<path d="M3510 4720 c0 -5 5 -10 11 -10 5 0 7 5 4 10 -3 6 -8 10 -11 10 -2 0
-4 -4 -4 -10z"/>
<path d="M3597 4716 c-10 -8 -14 -17 -8 -20 8 -5 41 18 41 30 0 8 -15 3 -33
-10z"/>
<path d="M3695 4720 c3 -5 10 -10 16 -10 5 0 9 5 9 10 0 6 -7 10 -16 10 -8 0
-12 -4 -9 -10z"/>
<path d="M4700 4712 c0 -10 29 -49 30 -42 10 45 9 50 -10 50 -11 0 -20 -4 -20
-8z"/>
<path d="M3244 4695 c-8 -19 2 -45 17 -45 9 0 9 3 0 14 -6 7 -9 21 -5 30 3 9
3 16 0 16 -4 0 -9 -7 -12 -15z"/>
<path d="M3730 4700 c0 -5 5 -10 10 -10 6 0 10 5 10 10 0 6 -4 10 -10 10 -5 0
-10 -4 -10 -10z"/>
<path d="M3430 4684 c0 -8 5 -12 10 -9 6 4 8 11 5 16 -9 14 -15 11 -15 -7z"/>
<path d="M3535 4690 c4 -6 11 -8 16 -5 14 9 11 15 -7 15 -8 0 -12 -5 -9 -10z"/>
<path d="M4535 4690 c-3 -5 -1 -10 4 -10 6 0 11 5 11 10 0 6 -2 10 -4 10 -3 0
-8 -4 -11 -10z"/>
<path d="M3644 4678 c-3 -4 4 -8 15 -8 11 0 22 4 26 9 3 6 -4 9 -16 8 -11 -1
-23 -5 -25 -9z"/>
<path d="M4275 4680 c-3 -5 1 -10 10 -10 9 0 13 5 10 10 -3 6 -8 10 -10 10 -2
0 -7 -4 -10 -10z"/>
<path d="M3560 4670 c0 -5 5 -10 11 -10 5 0 7 5 4 10 -3 6 -8 10 -11 10 -2 0
-4 -4 -4 -10z"/>
<path d="M4580 4670 c0 -5 5 -10 11 -10 5 0 7 5 4 10 -3 6 -8 10 -11 10 -2 0
-4 -4 -4 -10z"/>
<path d="M3290 4664 c0 -13 18 -39 24 -34 2 3 -2 14 -10 24 -8 11 -14 16 -14
10z"/>
<path d="M3531 4663 c0 -5 4 -17 9 -28 8 -18 9 -17 9 8 1 15 -3 27 -9 27 -5 0
-10 -3 -9 -7z"/>
<path d="M3760 4638 c0 -36 12 -31 16 7 1 14 -2 25 -7 25 -5 0 -9 -14 -9 -32z"/>
<path d="M3917 4663 c-4 -3 -7 -11 -7 -17 0 -6 5 -5 12 2 6 6 9 14 7 17 -3 3
-9 2 -12 -2z"/>
<path d="M4537 4651 c-3 -11 0 -22 7 -24 6 -3 11 6 11 19 0 29 -11 32 -18 5z"/>
<path d="M4750 4666 c0 -2 7 -6 15 -10 8 -3 15 -1 15 4 0 6 -7 10 -15 10 -8 0
-15 -2 -15 -4z"/>
<path d="M3661 4644 c0 -11 3 -14 6 -6 3 7 2 16 -1 19 -3 4 -6 -2 -5 -13z"/>
<path d="M4877 4653 c-4 -3 -7 -11 -7 -17 0 -6 5 -5 12 2 6 6 9 14 7 17 -3 3
-9 2 -12 -2z"/>
<path d="M3360 4630 c0 -4 8 -14 17 -21 9 -8 14 -9 10 -2 -4 6 -2 13 5 15 7 3
2 7 -10 10 -12 4 -22 3 -22 -2z"/>
<path d="M4672 4620 c0 -14 2 -19 5 -12 2 6 2 18 0 25 -3 6 -5 1 -5 -13z"/>
<path d="M3910 4619 c0 -5 5 -7 10 -4 6 3 10 8 10 11 0 2 -4 4 -10 4 -5 0 -10
-5 -10 -11z"/>
<path d="M4980 4620 c0 -5 5 -10 11 -10 5 0 7 5 4 10 -3 6 -8 10 -11 10 -2 0
-4 -4 -4 -10z"/>
<path d="M3075 4602 c4 -15 3 -22 -6 -20 -7 2 -15 -5 -17 -15 -3 -16 -1 -17
17 -5 23 14 26 26 10 48 -8 12 -9 10 -4 -8z"/>
<path d="M3250 4600 c0 -19 3 -21 12 -12 9 9 9 15 0 24 -9 9 -12 7 -12 -12z"/>
<path d="M4890 4610 c-8 -5 -11 -12 -7 -16 4 -4 13 -2 19 4 15 15 7 24 -12 12z"/>
<path d="M3318 4593 c6 -2 18 -2 25 0 6 3 1 5 -13 5 -14 0 -19 -2 -12 -5z"/>
<path d="M4995 4580 c3 -5 -1 -10 -9 -10 -9 0 -16 -7 -16 -15 0 -20 10 -19 26
3 16 21 17 32 3 32 -5 0 -7 -4 -4 -10z"/>
<path d="M3501 4573 c0 -6 -4 -20 -7 -30 -5 -14 -4 -15 5 -7 7 7 11 20 8 30
-3 11 -5 14 -6 7z"/>
<path d="M4545 4570 c-8 -13 5 -13 25 0 13 8 13 10 -2 10 -9 0 -20 -4 -23 -10z"/>
<path d="M5042 4561 c7 -11 15 -18 20 -15 11 7 -3 34 -18 34 -12 0 -12 -4 -2
-19z"/>
<path d="M3120 4560 c0 -5 8 -6 17 -3 14 5 13 3 -3 -14 -10 -11 -22 -18 -25
-17 -7 4 -49 -51 -49 -64 0 -5 7 -9 15 -9 8 0 12 4 9 9 -3 4 4 8 16 8 12 0 18
-4 15 -10 -3 -5 -2 -10 3 -10 6 0 8 -9 5 -20 -3 -11 -10 -17 -16 -13 -6 3 -7
1 -3 -6 4 -6 11 -9 16 -6 4 3 11 -1 13 -7 4 -10 6 -10 6 0 1 6 9 12 19 12 16
1 16 2 0 13 -9 7 -18 31 -19 52 -4 38 -2 40 23 39 15 -1 25 3 22 8 -3 4 -10 6
-15 3 -5 -4 -9 -2 -9 4 0 5 8 12 18 14 16 4 16 5 0 6 -10 0 -18 6 -18 11 0 6
-9 10 -20 10 -11 0 -20 -4 -20 -10z m0 -64 c0 -3 -4 -8 -10 -11 -5 -3 -10 -1
-10 4 0 6 5 11 10 11 6 0 10 -2 10 -4z"/>
<path d="M3290 4545 c-7 -8 -9 -15 -6 -15 4 0 14 7 22 15 9 8 11 15 6 15 -5 0
-15 -7 -22 -15z"/>
<path d="M3720 4531 c0 -5 9 -7 20 -4 11 3 20 7 20 9 0 2 -9 4 -20 4 -11 0
-20 -4 -20 -9z"/>
<path d="M4910 4525 c0 -8 4 -15 8 -15 5 0 9 7 9 15 0 8 -4 15 -9 15 -4 0 -8
-7 -8 -15z"/>
<path d="M3540 4519 c0 -5 5 -7 10 -4 6 3 10 8 10 11 0 2 -4 4 -10 4 -5 0 -10
-5 -10 -11z"/>
<path d="M5000 4515 c0 -9 6 -12 15 -9 8 4 15 7 15 9 0 2 -7 5 -15 9 -9 3 -15
0 -15 -9z"/>
<path d="M3196 4502 c-3 -5 1 -9 9 -9 8 0 12 4 9 9 -3 4 -7 8 -9 8 -2 0 -6 -4
-9 -8z"/>
<path d="M3371 4494 c0 -11 3 -14 6 -6 3 7 2 16 -1 19 -3 4 -6 -2 -5 -13z"/>
<path d="M3675 4500 c-3 -5 -1 -10 4 -10 6 0 11 5 11 10 0 6 -2 10 -4 10 -3 0
-8 -4 -11 -10z"/>
<path d="M3641 4484 c0 -11 3 -14 6 -6 3 7 2 16 -1 19 -3 4 -6 -2 -5 -13z"/>
<path d="M4980 4492 c0 -18 12 -42 21 -42 14 0 11 20 -6 36 -8 9 -15 11 -15 6z"/>
<path d="M3240 4479 c0 -5 5 -7 10 -4 6 3 10 8 10 11 0 2 -4 4 -10 4 -5 0 -10
-5 -10 -11z"/>
<path d="M3195 4470 c-3 -5 -1 -10 4 -10 6 0 11 5 11 10 0 6 -2 10 -4 10 -3 0
-8 -4 -11 -10z"/>
<path d="M3700 4465 c-7 -9 -8 -15 -2 -15 5 0 12 7 16 15 3 8 4 15 2 15 -2 0
-9 -7 -16 -15z"/>
<path d="M3252 4445 c-7 -8 -8 -15 -3 -15 5 0 13 5 16 10 4 6 11 7 17 4 7 -4
8 -2 4 4 -9 16 -18 15 -34 -3z"/>
<path d="M3806 4438 c3 -5 10 -6 15 -3 13 9 11 12 -6 12 -8 0 -12 -4 -9 -9z"/>
<path d="M5141 4434 c0 -11 3 -14 6 -6 3 7 2 16 -1 19 -3 4 -6 -2 -5 -13z"/>
<path d="M3075 4431 c-3 -5 -1 -12 5 -16 5 -3 10 1 10 9 0 18 -6 21 -15 7z"/>
<path d="M3615 4420 c-3 -5 -1 -10 4 -10 6 0 11 5 11 10 0 6 -2 10 -4 10 -3 0
-8 -4 -11 -10z"/>
<path d="M3400 4399 c0 -5 5 -7 10 -4 6 3 10 8 10 11 0 2 -4 4 -10 4 -5 0 -10
-5 -10 -11z"/>
<path d="M5090 4390 c0 -5 5 -10 10 -10 6 0 10 5 10 10 0 6 -4 10 -10 10 -5 0
-10 -4 -10 -10z"/>
<path d="M5210 4390 c0 -5 5 -10 11 -10 5 0 7 5 4 10 -3 6 -8 10 -11 10 -2 0
-4 -4 -4 -10z"/>
<path d="M3088 4383 c6 -2 18 -2 25 0 6 3 1 5 -13 5 -14 0 -19 -2 -12 -5z"/>
<path d="M3540 4361 c0 -25 6 -27 13 -6 4 8 2 17 -3 20 -6 4 -10 -3 -10 -14z"/>
<path d="M3031 4344 c0 -11 3 -14 6 -6 3 7 2 16 -1 19 -3 4 -6 -2 -5 -13z"/>
<path d="M3290 4340 c0 -5 5 -10 10 -10 6 0 10 5 10 10 0 6 -4 10 -10 10 -5 0
-10 -4 -10 -10z"/>
<path d="M5240 4339 c0 -5 7 -9 15 -9 9 0 12 -6 9 -15 -9 -21 3 -19 15 4 9 16
7 20 -14 23 -14 3 -25 1 -25 -3z"/>
<path d="M3560 4331 c0 -6 5 -13 10 -16 6 -3 10 1 10 9 0 9 -4 16 -10 16 -5 0
-10 -4 -10 -9z"/>
<path d="M4090 4329 c0 -5 5 -7 10 -4 6 3 10 8 10 11 0 2 -4 4 -10 4 -5 0 -10
-5 -10 -11z"/>
<path d="M3607 4264 c6 -15 23 -19 23 -5 0 5 -7 11 -14 14 -10 4 -13 1 -9 -9z"/>
<path d="M4075 4270 c6 -9 2 -10 -16 -5 -21 7 -22 6 -7 -9 20 -20 24 -20 31
-1 4 8 1 17 -5 21 -7 5 -8 2 -3 -6z"/>
<path d="M5250 4261 c0 -25 6 -27 13 -6 4 8 2 17 -3 20 -6 4 -10 -3 -10 -14z"/>
<path d="M3080 4250 c0 -11 2 -20 4 -20 2 0 6 9 9 20 3 11 1 20 -4 20 -5 0 -9
-9 -9 -20z"/>
<path d="M3061 4184 c0 -11 3 -14 6 -6 3 7 2 16 -1 19 -3 4 -6 -2 -5 -13z"/>
<path d="M3620 4161 c0 -5 7 -14 15 -21 13 -10 15 -9 15 9 0 12 -6 21 -15 21
-8 0 -15 -4 -15 -9z"/>
<path d="M3135 4140 c-3 -5 -1 -10 4 -10 6 0 11 5 11 10 0 6 -2 10 -4 10 -3 0
-8 -4 -11 -10z"/>
<path d="M3610 4125 c-11 -13 -10 -14 4 -9 9 3 16 10 16 15 0 13 -6 11 -20 -6z"/>
<path d="M3196 4118 c3 -5 10 -6 15 -3 13 9 11 12 -6 12 -8 0 -12 -4 -9 -9z"/>
<path d="M3140 4080 c0 -5 5 -10 11 -10 5 0 7 5 4 10 -3 6 -8 10 -11 10 -2 0
-4 -4 -4 -10z"/>
<path d="M3610 4075 c0 -8 5 -15 10 -15 6 0 10 7 10 15 0 8 -4 15 -10 15 -5 0
-10 -7 -10 -15z"/>
<path d="M3610 3920 c-8 -5 -10 -10 -5 -10 6 0 17 5 25 10 8 5 11 10 5 10 -5
0 -17 -5 -25 -10z"/>
<path d="M2114 3155 c3 -22 13 -27 19 -11 3 8 0 17 -8 19 -7 3 -12 0 -11 -8z"/>
<path d="M2153 3155 c-3 -9 -3 -18 0 -21 9 -9 27 6 27 22 0 19 -19 18 -27 -1z"/>
<path d="M2181 3104 c0 -11 3 -14 6 -6 3 7 2 16 -1 19 -3 4 -6 -2 -5 -13z"/>
<path d="M2246 3053 c9 -36 14 -42 14 -15 0 12 0 25 1 29 0 4 -5 9 -11 11 -7
3 -9 -5 -4 -25z"/>
<path d="M2160 3049 c0 -5 5 -7 10 -4 6 3 10 8 10 11 0 2 -4 4 -10 4 -5 0 -10
-5 -10 -11z"/>
<path d="M2288 2993 c7 -3 16 -2 19 1 4 3 -2 6 -13 5 -11 0 -14 -3 -6 -6z"/>
<path d="M2175 2920 c-3 -5 -1 -10 4 -10 6 0 11 5 11 10 0 6 -2 10 -4 10 -3 0
-8 -4 -11 -10z"/>
<path d="M2215 2799 c-10 -15 3 -25 16 -12 7 7 7 13 1 17 -6 3 -14 1 -17 -5z"/>
<path d="M2265 2740 c-3 -5 -1 -10 4 -10 6 0 11 5 11 10 0 6 -2 10 -4 10 -3 0
-8 -4 -11 -10z"/>
<path d="M4210 4910 c0 -5 5 -10 10 -10 6 0 10 5 10 10 0 6 -4 10 -10 10 -5 0
-10 -4 -10 -10z"/>
</g>
</svg>
